# File created by Blade
# Date/Time:  Thu Sep 25 19:04:16 2014
# Frame Rate: 120.000 fps
#------------------------------------------------------
:FULLY-SPECIFIED
:DEGREES
1256
root 3.375013 28.497243 -5.492526 16.787038 5.191729 7.038892
Spine -8.789423 5.175458 4.140992
Head -15.774047 -1.658289 0.061888
LeftShoulder -13.324212 16.771393 26.448529
LeftArm 20.424785 -21.937406 -33.903532
LeftForeArm 11.089250 -0.000000 13.581067
LeftHand -31.894400 -0.000000 -2.753822
LeftHandThumb1 -26.253704 0.000000 33.147579
RightShoulder -18.844628 16.845623 -42.831225
RightArm -13.048620 14.844700 28.946106
RightForeArm -24.954032 -0.000000 18.634507
RightHand -14.380153 -0.000000 -18.122743
RightHandThumb1 -24.326973 -0.000000 -32.862282
LeftUpLeg -28.266345 27.376275 14.549044
LeftLeg 27.512158 -0.000000 -0.000000
LeftFoot -6.601209 -6.306212 -35.510086
LeftToeBase 6.850776 -0.000000 -0.000000
RightUpLeg -7.886612 -29.193381 -34.889855
RightLeg -1.162627 -0.000000 0.000000
RightFoot 4.245608 -9.151184 22.170541
RightToeBase 3.398847 -0.000000 -0.000000
1257
root 3.464978 28.405936 -5.558844 16.967524 5.855253 7.285694
Spine -8.615114 4.809344 3.973743
Head -16.308636 -1.845173 0.171307
LeftShoulder -13.149515 16.680182 26.591803
LeftArm 20.505404 -21.940092 -33.966462
LeftForeArm 11.188191 0.000000 13.753695
LeftHand -31.806829 -0.000000 -2.623767
LeftHandThumb1 -26.253704 0.000000 33.147579
RightShoulder -18.845175 16.677016 -42.750361
RightArm -13.322729 15.074580 28.983808
RightForeArm -24.857099 -0.000000 18.583989
RightHand -14.384459 -0.000000 -18.103566
RightHandThumb1 -24.326973 -0.000000 -32.862282
LeftUpLeg -30.163051 28.147329 13.675261
LeftLeg 29.661311 -0.000000 -0.000000
LeftFoot -6.636307 -6.934584 -34.404876
LeftToeBase 7.076536 -0.000000 -0.000000
RightUpLeg -7.532827 -29.815309 -35.432765
RightLeg -1.172421 -0.000000 0.000000
RightFoot 4.268544 -9.344556 22.526688
RightToeBase 3.288218 -0.000000 -0.000000
1258
root 3.551226 28.316422 -5.626616 17.200854 6.523345 7.494152
Spine -8.479564 4.502252 3.859477
Head -16.880516 -2.061521 0.266651
LeftShoulder -12.993928 16.540522 26.652334
LeftArm 20.615334 -21.801961 -33.885639
LeftForeArm 11.121419 0.000000 13.919582
LeftHand -31.769422 -0.000000 -2.743548
LeftHandThumb1 -26.253704 0.000000 33.147579
RightShoulder -18.942475 16.481516 -42.688888
RightArm -13.444601 15.126015 29.038138
RightForeArm -24.659730 -0.000000 18.356037
RightHand -14.302755 0.000000 -17.951138
RightHandThumb1 -24.326973 -0.000000 -32.862282
LeftUpLeg -31.964802 28.683037 12.883203
LeftLeg 31.545355 -0.000000 -0.000000
LeftFoot -6.675385 -7.277971 -33.664195
LeftToeBase 6.883725 -0.000000 -0.000000
RightUpLeg -7.247111 -30.578331 -35.878575
RightLeg -1.166943 -0.000000 0.000000
RightFoot 4.333815 -9.375948 22.483999
RightToeBase 3.409990 -0.000000 -0.000000
1259
root 3.640681 28.224803 -5.689224 17.413975 7.187006 7.712345
Spine -8.335329 4.190759 3.768043
Head -17.370808 -2.248090 0.252203
LeftShoulder -12.833050 16.424077 26.700859
LeftArm 20.794874 -21.608534 -33.804638
LeftForeArm 10.988970 -0.000000 13.922164
LeftHand -31.701095 -0.000000 -2.831061
LeftHandThumb1 -26.253704 0.000000 33.147579
RightShoulder -19.081583 16.298161 -42.688289
RightArm -13.468082 15.110405 29.147527
RightForeArm -24.513820 0.000000 18.056169
RightHand -14.281141 -0.000000 -17.433893
RightHandThumb1 -24.326973 -0.000000 -32.862282
LeftUpLeg -33.575295 29.109155 12.136391
LeftLeg 33.177545 -0.000000 -0.000000
LeftFoot -6.751848 -7.554188 -32.927347
LeftToeBase 7.098455 -0.000000 -0.000000
RightUpLeg -6.897181 -31.236600 -36.376621
RightLeg -1.173424 -0.000000 0.000000
RightFoot 4.347438 -9.439763 22.670676
RightToeBase 3.405821 -0.000000 -0.000000
1260
root 3.731942 28.133468 -5.750642 17.641169 7.876128 7.940526
Spine -8.209222 3.864877 3.680391
Head -17.862692 -2.454542 0.220863
LeftShoulder -12.664300 16.242475 26.736268
LeftArm 20.971739 -21.350081 -33.665766
LeftForeArm 10.839755 -0.000000 13.860310
LeftHand -31.471101 -0.000000 -2.991514
LeftHandThumb1 -26.253704 0.000000 33.147579
RightShoulder -19.264427 16.164320 -42.780390
RightArm -13.491339 15.000018 29.372390
RightForeArm -24.392527 -0.000000 17.758205
RightHand -14.518449 -0.000000 -17.873868
RightHandThumb1 -24.326973 -0.000000 -32.862282
LeftUpLeg -35.051038 29.427428 11.398433
LeftLeg 34.539231 -0.000000 -0.000000
LeftFoot -6.918664 -7.687356 -32.268681
LeftToeBase 7.302518 -0.000000 -0.000000
RightUpLeg -6.506440 -31.952967 -36.885659
RightLeg -1.217196 -0.000000 0.000000
RightFoot 4.400320 -9.522339 22.839540
RightToeBase 3.448680 -0.000000 -0.000000
1261
root 3.819857 28.043646 -5.812460 17.883371 8.538790 8.098063
Spine -8.118122 3.629673 3.665728
Head -18.290556 -2.640793 0.165282
LeftShoulder -12.426868 16.056590 26.773427
LeftArm 21.151928 -21.108741 -33.546098
LeftForeArm 10.664506 -0.000000 13.785871
LeftHand -31.482040 0.000000 -3.122053
LeftHandThumb1 -26.253704 0.000000 33.147579
RightShoulder -19.469954 15.934871 -42.838928
RightArm -13.416288 14.919221 29.574065
RightForeArm -24.185225 0.000000 17.397528
RightHand -14.444781 0.000000 -18.146612
RightHandThumb1 -24.326973 -0.000000 -32.862282
LeftUpLeg -36.416021 29.773318 10.730710
LeftLeg 35.719740 -0.000000 -0.000000
LeftFoot -7.074511 -7.898201 -31.646266
LeftToeBase 7.085880 -0.000000 -0.000000
RightUpLeg -6.169223 -32.662827 -37.295196
RightLeg -1.258987 -0.000000 0.000000
RightFoot 4.489501 -9.610500 22.988031
RightToeBase 3.498312 -0.000000 -0.000000
1262
root 3.911573 27.955146 -5.873186 18.161716 9.165379 8.301550
Spine -8.079319 3.393174 3.590058
Head -18.624443 -2.847583 0.111741
LeftShoulder -12.169264 15.832353 26.816479
LeftArm 21.298000 -20.876605 -33.419134
LeftForeArm 10.533012 0.000000 13.677117
LeftHand -31.429169 -0.000000 -3.149524
LeftHandThumb1 -26.253704 0.000000 33.147579
RightShoulder -19.666785 15.722402 -42.918068
RightArm -13.367049 14.844042 29.807445
RightForeArm -23.890421 -0.000000 17.136677
RightHand -14.595235 -0.000000 -17.967477
RightHandThumb1 -24.326973 -0.000000 -32.862282
LeftUpLeg -37.722733 30.120009 9.986497
LeftLeg 36.769106 -0.000000 -0.000000
LeftFoot -7.257101 -8.139816 -31.028105
LeftToeBase 6.925449 -0.000000 -0.000000
RightUpLeg -5.841402 -33.352690 -37.757075
RightLeg -1.322431 -0.000000 0.000000
RightFoot 4.595663 -9.664433 23.215925
RightToeBase 3.609518 -0.000000 -0.000000
1263
root 4.005421 27.867361 -5.927653 18.424266 9.753090 8.517966
Spine -8.039292 3.071376 3.493343
Head -18.915792 -2.958929 0.086346
LeftShoulder -11.954068 15.647718 26.862979
LeftArm 21.351811 -20.672076 -33.290770
LeftForeArm 10.370325 -0.000000 13.613148
LeftHand -31.465436 -0.000000 -3.109775
LeftHandThumb1 -26.253704 0.000000 33.147579
RightShoulder -19.683254 15.630422 -42.874380
RightArm -13.535583 15.046655 29.873702
RightForeArm -23.732140 0.000000 17.143281
RightHand -14.519527 -0.000000 -17.568670
RightHandThumb1 -24.326973 -0.000000 -32.862282
LeftUpLeg -38.930733 30.464845 9.225492
LeftLeg 37.740563 -0.000000 -0.000000
LeftFoot -7.542268 -8.411382 -30.554818
LeftToeBase 6.870499 -0.000000 -0.000000
RightUpLeg -5.472313 -34.031292 -38.254818
RightLeg -1.435200 -0.000000 0.000000
RightFoot 4.751556 -9.699074 23.504209
RightToeBase 3.614961 -0.000000 -0.000000
1264
root 4.094254 27.779165 -5.977497 18.693607 10.242259 8.667344
Spine -8.024888 2.832603 3.436081
Head -19.164156 -3.044331 0.017039
LeftShoulder -11.790220 15.511622 26.879008
LeftArm 21.466211 -20.520328 -33.168575
LeftForeArm 10.057764 -0.000000 13.517851
LeftHand -31.405882 -0.000000 -3.174377
LeftHandThumb1 -26.253704 0.000000 33.147579
RightShoulder -19.741596 15.524989 -42.908876
RightArm -13.667867 15.401218 30.042903
RightForeArm -23.853249 -0.000000 17.182536
RightHand -14.342593 -0.000000 -17.605101
RightHandThumb1 -24.326973 -0.000000 -32.862282
LeftUpLeg -40.076310 30.823957 8.549500
LeftLeg 38.707249 -0.000000 -0.000000
LeftFoot -7.960429 -8.673217 -30.057465
LeftToeBase 7.099281 -0.000000 -0.000000
RightUpLeg -5.190043 -34.594152 -38.658082
RightLeg -1.563130 -0.000000 0.000000
RightFoot 4.885997 -9.794800 23.725507
RightToeBase 3.733993 -0.000000 -0.000000
1265
root 4.184803 27.689979 -6.023592 18.976473 10.624688 8.783285
Spine -8.062028 2.612077 3.383626
Head -19.354594 -3.110402 -0.052162
LeftShoulder -11.614311 15.416114 26.894360
LeftArm 21.489257 -20.524992 -33.123379
LeftForeArm 10.092744 0.000000 13.491751
LeftHand -31.437440 -0.000000 -3.076007
LeftHandThumb1 -26.253704 0.000000 33.147579
RightShoulder -19.709533 15.453354 -42.901759
RightArm -13.765911 15.506177 30.237483
RightForeArm -23.651905 -0.000000 17.265297
RightHand -14.339749 -0.000000 -17.750277
RightHandThumb1 -24.326973 -0.000000 -32.862282
LeftUpLeg -41.189841 31.192330 7.920341
LeftLeg 39.710887 -0.000000 -0.000000
LeftFoot -8.398066 -8.872944 -29.704898
LeftToeBase 6.968979 -0.000000 -0.000000
RightUpLeg -4.990912 -35.050370 -39.008329
RightLeg -1.717555 -0.000000 0.000000
RightFoot 5.048996 -9.865127 23.929951
RightToeBase 3.803138 -0.000000 -0.000000
1266
root 4.274067 27.599585 -6.068059 19.278502 10.892558 8.868995
Spine -8.122389 2.429991 3.309697
Head -19.543889 -3.098029 -0.071552
LeftShoulder -11.548689 15.321815 26.905855
LeftArm 21.546404 -20.452124 -33.050219
LeftForeArm 10.096181 -0.000000 13.440735
LeftHand -31.482443 0.000000 -3.028026
LeftHandThumb1 -26.253704 0.000000 33.147579
RightShoulder -19.636814 15.543016 -42.927324
RightArm -13.988394 15.621070 30.429378
RightForeArm -23.749348 -0.000000 17.501896
RightHand -14.428889 -0.000000 -18.002387
RightHandThumb1 -24.326973 -0.000000 -32.862282
LeftUpLeg -42.293907 31.584952 7.326259
LeftLeg 40.731440 -0.000000 -0.000000
LeftFoot -8.845916 -8.987020 -29.397798
LeftToeBase 7.099774 -0.000000 -0.000000
RightUpLeg -4.918740 -35.377422 -39.312536
RightLeg -1.834494 -0.000000 0.000000
RightFoot 5.179399 -10.021861 24.132948
RightToeBase 3.810686 -0.000000 -0.000000
1267
root 4.359883 27.507039 -6.111193 19.582343 11.082853 8.908910
Spine -8.194358 2.344953 3.239288
Head -19.724542 -3.127840 -0.095045
LeftShoulder -11.450384 15.360074 26.911433
LeftArm 21.678956 -20.559102 -33.027893
LeftForeArm 10.054546 -0.000000 13.383856
LeftHand -31.592099 -0.000000 -2.967977
LeftHandThumb1 -26.253704 0.000000 33.147579
RightShoulder -19.601802 15.600011 -42.936518
RightArm -14.134802 15.819378 30.599155
RightForeArm -24.007186 0.000000 17.678776
RightHand -14.530470 -0.000000 -17.965783
RightHandThumb1 -24.326973 -0.000000 -32.862282
LeftUpLeg -43.387856 31.966635 6.806939
LeftLeg 41.789466 -0.000000 -0.000000
LeftFoot -9.235711 -9.121359 -29.167984
LeftToeBase 7.005054 -0.000000 -0.000000
RightUpLeg -4.914444 -35.625507 -39.549599
RightLeg -1.966102 -0.000000 0.000000
RightFoot 5.294595 -10.194286 24.373220
RightToeBase 3.880409 -0.000000 -0.000000
1268
root 4.445549 27.415636 -6.158997 19.913794 11.211391 8.939763
Spine -8.274867 2.228687 3.152298
Head -19.913145 -3.022531 -0.104432
LeftShoulder -11.456310 15.354900 26.922569
LeftArm 21.806897 -20.677555 -33.053117
LeftForeArm 10.140652 -0.000000 13.341035
LeftHand -31.567896 -0.000000 -2.918658
LeftHandThumb1 -26.253704 0.000000 33.147579
RightShoulder -19.502835 15.862764 -42.931292
RightArm -14.344632 15.905166 30.705183
RightForeArm -24.291672 0.000000 17.800018
RightHand -14.375670 -0.000000 -18.028285
RightHandThumb1 -24.326973 -0.000000 -32.862282
LeftUpLeg -44.508930 32.338689 6.286410
LeftLeg 42.866198 -0.000000 -0.000000
LeftFoot -9.583669 -9.331214 -29.028754
LeftToeBase 7.023663 -0.000000 -0.000000
RightUpLeg -5.016813 -35.844240 -39.750148
RightLeg -2.083212 -0.000000 0.000000
RightFoot 5.408703 -10.417067 24.660368
RightToeBase 4.079220 -0.000000 -0.000000
